<?xml version="1.0" standalone="no"?>
<!DOCTYPE svg PUBLIC "-//W3C//DTD SVG 20010904//EN"
 "http://www.w3.org/TR/2001/REC-SVG-20010904/DTD/svg10.dtd">
<svg version="1.0" xmlns="http://www.w3.org/2000/svg"
 width="736.000000pt" height="736.000000pt" viewBox="0 0 736.000000 736.000000"
 preserveAspectRatio="xMidYMid meet">
<metadata>
Created by potrace 1.14, written by Peter Selinger 2001-2017
</metadata>
<g transform="translate(0.000000,736.000000) scale(0.100000,-0.100000)"
fill="#000000" stroke="none">
<path d="M3388 7275 c-1 -2 -41 -6 -86 -10 -46 -4 -92 -8 -101 -10 -10 -2 -42
-6 -72 -10 -91 -12 -103 -13 -137 -19 -18 -4 -65 -13 -105 -22 -39 -8 -81 -17
-92 -20 -11 -2 -32 -6 -47 -10 -15 -3 -31 -6 -35 -6 -5 0 -16 -4 -26 -10 -10
-5 -26 -11 -35 -13 -9 -1 -37 -9 -62 -16 -25 -7 -47 -13 -50 -14 -19 -4 -200
-66 -240 -82 -8 -4 -17 -7 -20 -8 -3 -1 -27 -11 -53 -23 -27 -12 -51 -22 -54
-22 -6 0 -322 -157 -348 -173 -85 -53 -126 -77 -131 -77 -3 0 -19 -11 -36 -25
-16 -14 -36 -25 -44 -25 -8 0 -14 -4 -14 -9 0 -5 -8 -12 -17 -15 -10 -3 -31
-17 -48 -31 -41 -34 -46 -38 -75 -56 -14 -9 -36 -26 -49 -38 -13 -11 -27 -21
-30 -21 -3 0 -22 -15 -42 -33 -20 -17 -58 -50 -85 -72 -69 -56 -354 -340 -354
-353 0 -6 -4 -12 -9 -14 -7 -2 -51 -54 -147 -171 -30 -37 -194 -275 -194 -282
0 -2 -13 -23 -28 -47 -16 -24 -42 -68 -58 -98 -16 -30 -31 -57 -34 -60 -8 -8
-100 -199 -137 -285 -53 -122 -136 -351 -147 -405 -2 -8 -6 -22 -9 -30 -7 -19
-44 -165 -52 -202 -3 -16 -7 -40 -10 -55 -3 -16 -8 -39 -11 -53 -13 -55 -20
-99 -29 -185 -4 -33 -9 -63 -11 -66 -17 -29 -25 -567 -11 -719 16 -170 28
-254 58 -400 6 -30 12 -64 14 -75 9 -52 92 -344 112 -395 4 -8 7 -17 8 -20 1
-3 5 -14 9 -25 5 -11 21 -54 36 -95 50 -131 159 -361 216 -455 13 -22 29 -49
34 -60 11 -23 13 -26 98 -153 34 -52 62 -99 62 -103 0 -5 4 -9 10 -9 5 0 16
-12 24 -27 8 -16 23 -37 33 -48 10 -11 31 -38 48 -60 16 -22 34 -45 40 -51 5
-6 30 -36 55 -65 58 -70 322 -334 379 -379 25 -19 63 -52 85 -72 23 -21 46
-38 53 -38 6 0 13 -4 15 -8 2 -5 30 -28 63 -53 33 -24 62 -47 65 -50 3 -3 10
-8 15 -10 6 -2 55 -34 110 -70 55 -36 120 -76 145 -90 25 -13 47 -26 50 -29 8
-8 335 -167 360 -175 3 -1 16 -6 30 -12 14 -6 45 -19 70 -28 25 -9 54 -21 65
-27 12 -5 27 -10 35 -12 8 -2 22 -6 30 -9 93 -37 358 -107 497 -132 16 -2 52
-9 81 -15 29 -5 56 -9 60 -9 4 1 9 0 12 -1 10 -4 37 -8 100 -14 36 -4 88 -10
115 -13 28 -4 160 -7 295 -7 218 -1 313 3 430 19 19 2 53 6 75 9 84 11 183 28
243 41 44 10 68 15 122 26 30 6 61 16 68 21 6 6 12 8 12 5 0 -6 208 55 256 74
16 7 34 13 40 14 73 16 417 174 564 259 90 52 297 184 316 201 6 5 22 17 34
25 151 102 393 323 575 524 97 108 274 343 330 438 6 9 30 50 55 90 25 40 49
82 53 93 4 11 11 22 15 25 4 3 32 57 63 120 82 167 89 182 89 197 0 7 5 13 12
13 6 0 9 3 6 6 -4 3 3 26 14 52 22 48 87 226 93 252 2 8 13 46 25 84 12 38 23
76 25 85 2 9 11 48 21 86 9 39 18 79 20 90 1 11 3 21 4 23 3 3 5 10 15 67 4
28 10 57 12 65 1 8 5 35 8 60 3 25 8 61 11 80 18 121 27 266 27 445 1 126 -9
320 -18 385 -2 14 -6 45 -9 70 -13 104 -17 126 -22 150 -3 14 -7 39 -10 55 -3
17 -6 39 -8 50 -2 11 -6 27 -9 35 -3 8 -8 29 -11 45 -3 17 -16 73 -30 125 -15
52 -28 103 -30 112 -35 139 -155 436 -254 628 -51 98 -179 319 -192 330 -4 3
-24 32 -45 65 -22 33 -44 65 -50 71 -5 6 -17 21 -25 34 -8 12 -24 32 -35 45
-36 41 -55 65 -55 71 0 3 -10 15 -22 28 -13 13 -43 47 -68 76 -48 56 -216 227
-291 295 -249 228 -625 474 -939 613 -25 11 -61 27 -80 36 -105 46 -342 127
-490 166 -19 5 -45 12 -57 15 -21 6 -38 10 -85 20 -86 18 -112 23 -148 29 -14
3 -45 8 -70 12 -61 10 -65 11 -145 18 -38 4 -81 10 -95 13 -27 6 -546 13 -552
8z"/>
</g>
</svg>
